<?xml version="1.0" encoding="UTF-8"?>
<svg id="Layer_1" data-name="Layer 1" xmlns="http://www.w3.org/2000/svg" viewBox="0 0 405.17 174.36">
  <defs>
    <style>
      .cls-1 {
        fill: #0d1f2d;
      }
    </style>
  </defs>
  <path class="cls-1" d="M345.1,72.33c-20.68-4.18-38.53-7.8-38.53-23.47,0-13.67,12.8-22.51,32.61-22.51,21.94,0,36.12,12.46,36.12,31.73v4.48l27.86-11.82-.21-2.16c-2.76-28.6-28.99-48.57-63.78-48.57s-62.47,21.19-62.47,50.39c0,36.97,32.36,43.36,58.36,48.49,21.47,4.24,40.02,7.9,40.02,25.3,0,14.25-13.81,23.83-34.37,23.83-24.68,0-39.42-14.33-39.42-38.32v-4.71l-27.55,13.24v-38.28h-79.49v26.79h50.09c-3.93,24.66-22.2,40.41-47.35,40.41-33.8,0-54.79-23.1-54.79-60.28s22.55-59.62,56.11-59.62c22.88,0,42.04,11.51,49.98,30.05l1.44,3.36,24.23-16.99-1.21-2.31C259.35,15.84,230.92,0,198.54,0s-59.65,15.81-74.25,40.97C118.48,17.96,98.29,3.73,69.5,3.73H0v167.33h29.64v-64.56h40.95c17.58,0,32.06-5.83,41.82-15.85,1.48,48.7,34.92,83.7,80.63,83.7,21.45,0,38.73-7.49,51.5-22.29v19h29.2v-45.87c5.8,30,31.58,49.16,66.97,49.16,38.55,0,64.45-20.69,64.45-51.49,0-38.38-33.3-45.12-60.07-50.54ZM69.5,79.27H29.64V30.96h40.3c16.33,0,26.47,9.3,26.47,24.27s-10.56,24.05-26.9,24.05Z"/>
</svg>